<mxfile host="app.diagrams.net" agent="Mozilla/5.0 (X11; Linux x86_64) AppleWebKit/537.36 (KHTML, like Gecko) Chrome/135.0.0.0 Safari/537.36" version="26.2.13">
  <diagram id="C5RBs43oDa-KdzZeNtuy" name="Page-1">
    <mxGraphModel dx="674" dy="851" grid="1" gridSize="10" guides="1" tooltips="1" connect="1" arrows="1" fold="1" page="1" pageScale="1" pageWidth="827" pageHeight="1169" math="0" shadow="0">
      <root>
        <mxCell id="WIyWlLk6GJQsqaUBKTNV-0" />
        <mxCell id="WIyWlLk6GJQsqaUBKTNV-1" parent="WIyWlLk6GJQsqaUBKTNV-0" />
        <mxCell id="2dKWging5KWCIZ0u3hdL-2" value="" style="edgeStyle=none;curved=1;rounded=0;orthogonalLoop=1;jettySize=auto;html=1;fontSize=12;startSize=8;endSize=8;" edge="1" parent="WIyWlLk6GJQsqaUBKTNV-1" source="WIyWlLk6GJQsqaUBKTNV-3" target="2dKWging5KWCIZ0u3hdL-0">
          <mxGeometry relative="1" as="geometry" />
        </mxCell>
        <mxCell id="WIyWlLk6GJQsqaUBKTNV-3" value="Inicio" style="rounded=1;whiteSpace=wrap;html=1;fontSize=12;glass=0;strokeWidth=1;shadow=0;" parent="WIyWlLk6GJQsqaUBKTNV-1" vertex="1">
          <mxGeometry x="160" y="80" width="120" height="40" as="geometry" />
        </mxCell>
        <mxCell id="2dKWging5KWCIZ0u3hdL-3" value="" style="edgeStyle=none;curved=1;rounded=0;orthogonalLoop=1;jettySize=auto;html=1;fontSize=12;startSize=8;endSize=8;" edge="1" parent="WIyWlLk6GJQsqaUBKTNV-1" source="2dKWging5KWCIZ0u3hdL-0" target="2dKWging5KWCIZ0u3hdL-1">
          <mxGeometry relative="1" as="geometry" />
        </mxCell>
        <mxCell id="2dKWging5KWCIZ0u3hdL-0" value="Ingresar primer numero" style="rounded=1;whiteSpace=wrap;html=1;" vertex="1" parent="WIyWlLk6GJQsqaUBKTNV-1">
          <mxGeometry x="160" y="180" width="120" height="60" as="geometry" />
        </mxCell>
        <mxCell id="2dKWging5KWCIZ0u3hdL-5" value="" style="edgeStyle=none;curved=1;rounded=0;orthogonalLoop=1;jettySize=auto;html=1;fontSize=12;startSize=8;endSize=8;" edge="1" parent="WIyWlLk6GJQsqaUBKTNV-1" source="2dKWging5KWCIZ0u3hdL-1" target="2dKWging5KWCIZ0u3hdL-4">
          <mxGeometry relative="1" as="geometry" />
        </mxCell>
        <mxCell id="2dKWging5KWCIZ0u3hdL-1" value="Ingresar segundo número" style="rounded=1;whiteSpace=wrap;html=1;" vertex="1" parent="WIyWlLk6GJQsqaUBKTNV-1">
          <mxGeometry x="160" y="300" width="120" height="60" as="geometry" />
        </mxCell>
        <mxCell id="2dKWging5KWCIZ0u3hdL-7" value="" style="edgeStyle=none;curved=1;rounded=0;orthogonalLoop=1;jettySize=auto;html=1;fontSize=12;startSize=8;endSize=8;" edge="1" parent="WIyWlLk6GJQsqaUBKTNV-1" source="2dKWging5KWCIZ0u3hdL-4" target="2dKWging5KWCIZ0u3hdL-6">
          <mxGeometry relative="1" as="geometry" />
        </mxCell>
        <mxCell id="2dKWging5KWCIZ0u3hdL-9" value="" style="edgeStyle=none;curved=1;rounded=0;orthogonalLoop=1;jettySize=auto;html=1;fontSize=12;startSize=8;endSize=8;" edge="1" parent="WIyWlLk6GJQsqaUBKTNV-1" source="2dKWging5KWCIZ0u3hdL-4" target="2dKWging5KWCIZ0u3hdL-8">
          <mxGeometry relative="1" as="geometry" />
        </mxCell>
        <mxCell id="2dKWging5KWCIZ0u3hdL-4" value="El número mayor es el primero" style="rhombus;whiteSpace=wrap;html=1;" vertex="1" parent="WIyWlLk6GJQsqaUBKTNV-1">
          <mxGeometry x="145" y="430" width="150" height="170" as="geometry" />
        </mxCell>
        <mxCell id="2dKWging5KWCIZ0u3hdL-12" style="edgeStyle=none;curved=1;rounded=0;orthogonalLoop=1;jettySize=auto;html=1;exitX=0.5;exitY=1;exitDx=0;exitDy=0;entryX=0.5;entryY=0;entryDx=0;entryDy=0;fontSize=12;startSize=8;endSize=8;" edge="1" parent="WIyWlLk6GJQsqaUBKTNV-1" source="2dKWging5KWCIZ0u3hdL-6" target="2dKWging5KWCIZ0u3hdL-10">
          <mxGeometry relative="1" as="geometry" />
        </mxCell>
        <mxCell id="2dKWging5KWCIZ0u3hdL-6" value="Imprimir &quot;El numero mayor es&quot; segundo número" style="rounded=1;whiteSpace=wrap;html=1;" vertex="1" parent="WIyWlLk6GJQsqaUBKTNV-1">
          <mxGeometry x="430" y="485" width="120" height="60" as="geometry" />
        </mxCell>
        <mxCell id="2dKWging5KWCIZ0u3hdL-13" value="" style="edgeStyle=none;curved=1;rounded=0;orthogonalLoop=1;jettySize=auto;html=1;fontSize=12;startSize=8;endSize=8;" edge="1" parent="WIyWlLk6GJQsqaUBKTNV-1" source="2dKWging5KWCIZ0u3hdL-8" target="2dKWging5KWCIZ0u3hdL-10">
          <mxGeometry relative="1" as="geometry" />
        </mxCell>
        <mxCell id="2dKWging5KWCIZ0u3hdL-8" value="Imprimir &quot;El numero mayor es &quot; primer número" style="rounded=1;whiteSpace=wrap;html=1;" vertex="1" parent="WIyWlLk6GJQsqaUBKTNV-1">
          <mxGeometry x="160" y="775" width="120" height="60" as="geometry" />
        </mxCell>
        <mxCell id="2dKWging5KWCIZ0u3hdL-14" value="" style="edgeStyle=none;curved=1;rounded=0;orthogonalLoop=1;jettySize=auto;html=1;fontSize=12;startSize=8;endSize=8;" edge="1" parent="WIyWlLk6GJQsqaUBKTNV-1" source="2dKWging5KWCIZ0u3hdL-10" target="2dKWging5KWCIZ0u3hdL-11">
          <mxGeometry relative="1" as="geometry" />
        </mxCell>
        <mxCell id="2dKWging5KWCIZ0u3hdL-10" value="Número mayor&amp;nbsp;" style="shape=document;whiteSpace=wrap;html=1;boundedLbl=1;" vertex="1" parent="WIyWlLk6GJQsqaUBKTNV-1">
          <mxGeometry x="430" y="765" width="120" height="80" as="geometry" />
        </mxCell>
        <mxCell id="2dKWging5KWCIZ0u3hdL-11" value="Fin" style="rounded=0;whiteSpace=wrap;html=1;" vertex="1" parent="WIyWlLk6GJQsqaUBKTNV-1">
          <mxGeometry x="430" y="920" width="120" height="60" as="geometry" />
        </mxCell>
        <mxCell id="2dKWging5KWCIZ0u3hdL-15" value="No" style="text;html=1;align=center;verticalAlign=middle;resizable=0;points=[];autosize=1;strokeColor=none;fillColor=none;fontSize=16;" vertex="1" parent="WIyWlLk6GJQsqaUBKTNV-1">
          <mxGeometry x="294" y="471" width="40" height="30" as="geometry" />
        </mxCell>
        <mxCell id="2dKWging5KWCIZ0u3hdL-16" value="Text" style="text;html=1;align=center;verticalAlign=middle;resizable=0;points=[];autosize=1;strokeColor=none;fillColor=none;fontSize=16;" vertex="1" parent="WIyWlLk6GJQsqaUBKTNV-1">
          <mxGeometry x="229" y="601" width="50" height="30" as="geometry" />
        </mxCell>
      </root>
    </mxGraphModel>
  </diagram>
</mxfile>
